<svg width="32" height="32" fill="none" xmlns="http://www.w3.org/2000/svg"><path d="M10.697 24.839c-1.768 5.303-8.84 5.303-8.84 5.303s0-7.07 5.304-8.839m19.446-8.839L16 23.072 8.929 16 19.535 5.393c4.017-4.016 8.033-3.977 9.746-3.721a1.244 1.244 0 011.047 1.047c.256 1.713.295 5.73-3.721 9.745z" stroke="#961914" stroke-width="2" stroke-linecap="round" stroke-linejoin="round"/><path d="M24.839 14.232v10.089a1.25 1.25 0 01-.366.884l-5.054 5.053a1.25 1.25 0 01-2.11-.638L16 23.07m1.768-15.909H7.678a1.25 1.25 0 00-.883.366l-5.053 5.054a1.25 1.25 0 00.638 2.11L8.93 16" stroke="#961914" stroke-width="2" stroke-linecap="round" stroke-linejoin="round"/></svg>